<?xml version="1.0" encoding="iso-8859-1"?>
<!-- Generator: Adobe Illustrator 19.0.0, SVG Export Plug-In . SVG Version: 6.00 Build 0)  -->
<svg version="1.1" id="Layer_1" xmlns="http://www.w3.org/2000/svg" xmlns:xlink="http://www.w3.org/1999/xlink" x="0px" y="0px"
	 viewBox="0 0 512 512" style="enable-background:new 0 0 512 512;" xml:space="preserve">
<g>
	<g>
		<path d="M503.551,423.289h-28.644c-0.304-23.448-19.464-42.434-42.983-42.434h-2.784c-18.495-35.151-55.185-57.537-95.227-57.537
			c-40.048,0-75.052,21.997-93.572,54.543c-10.919-7.797-23.944-12.015-37.661-12.015c-33.297,0-60.813,25.147-64.598,57.444H105.51
			c-3.828-16.205-18.404-28.304-35.76-28.304c-17.358,0-31.934,12.099-35.762,28.304H8.449c-4.667,0-8.449,3.783-8.449,8.449
			c0,4.666,3.782,8.449,8.449,8.449h495.102c4.667,0,8.449-3.783,8.449-8.449C512,427.072,508.218,423.289,503.551,423.289z
			 M51.808,423.29c3.183-6.729,10.017-11.405,17.941-11.405c7.923,0,14.758,4.676,17.939,11.405H51.808z M226.598,423.289h-71.473
			c3.662-22.948,23.588-40.545,47.552-40.545c11.21,0,21.801,3.799,30.35,10.778C229.541,402.901,227.328,412.893,226.598,423.289z
			 M391.024,360.495h-14.597c-2.199-4.777-4.607-9.159-7.21-13.094C377.067,350.727,384.411,355.139,391.024,360.495z
			 M329.946,340.318c0.867-0.037,1.739-0.053,2.614-0.066c8.938,0.428,17.732,7.877,24.857,20.244h-51.314
			C313.085,348.422,321.555,341.224,329.946,340.318z M273.334,423.289h-29.767c0.377-4.51,1.086-8.926,2.101-13.226h28.584
			C273.808,414.379,273.498,418.791,273.334,423.289z M276.773,393.165h-25.291c2.566-5.583,5.676-10.866,9.274-15.772h19.96
			C279.183,382.403,277.86,387.671,276.773,393.165z M276.84,360.495c4.877-3.96,10.175-7.413,15.809-10.306
			c-1.963,3.201-3.806,6.641-5.512,10.306H276.84z M355.143,423.289h-64.888c0.178-4.486,0.514-8.901,1-13.226h66.154
			C355.997,414.226,355.202,418.67,355.143,423.289z M368.05,393.164h-74.016c1.213-5.52,2.699-10.798,4.443-15.771h66.53
			c1.592,4.563,3.001,9.452,4.183,14.632l0.077-0.018C368.852,392.383,368.45,392.773,368.05,393.164z M388.94,423.289h-16.898
			c0.3-14.014,11.694-25.341,25.736-25.527C392.339,404.865,389.064,413.702,388.94,423.289z M384.4,383.116
			c-0.51-1.951-1.057-3.851-1.623-5.722h24.337c0.83,1.132,1.632,2.287,2.411,3.462h-11.399
			C393.327,380.856,388.713,381.658,384.4,383.116z M405.837,423.29c0.303-14.132,11.884-25.536,26.086-25.536
			c14.203,0,25.783,11.405,26.084,25.536H405.837z"/>
	</g>
</g>
<g>
	<g>
		<path d="M503.551,455.395H8.449c-4.667,0-8.449,3.783-8.449,8.449c0,4.666,3.782,8.449,8.449,8.449h495.102
			c4.667,0,8.449-3.783,8.449-8.449C512,459.178,508.217,455.395,503.551,455.395z"/>
	</g>
</g>
<g>
	<g>
		<path d="M292.158,117.44h-91.759c1.017-2.767,1.573-5.756,1.573-8.871c0-14.209-11.561-25.769-25.77-25.769H47.764
			c-14.209,0-25.769,11.56-25.769,25.769s11.56,25.769,25.769,25.769h69.601c-1.017,2.768-1.573,5.755-1.573,8.872
			c0,14.209,11.561,25.769,25.769,25.769h150.596c14.209,0,25.77-11.56,25.77-25.769S306.367,117.44,292.158,117.44z
			 M292.158,152.081H141.562c-4.892,0-8.871-3.979-8.871-8.871s3.979-8.872,8.871-8.872c4.667,0,8.449-3.783,8.449-8.449
			c0-4.666-3.782-8.449-8.449-8.449H47.764c-4.892,0-8.871-3.979-8.871-8.871s3.98-8.871,8.871-8.871h128.437
			c4.893,0,8.872,3.979,8.872,8.871c0,4.892-3.979,8.871-8.872,8.871c-4.667,0-8.449,3.783-8.449,8.449
			c0,4.666,3.782,8.449,8.449,8.449h115.956c4.892,0,8.872,3.98,8.872,8.872C301.029,148.102,297.049,152.081,292.158,152.081z"/>
	</g>
</g>
<g>
	<g>
		<path d="M448.821,74.347h-41.135c1.017-2.767,1.573-5.756,1.573-8.871c0-14.209-11.561-25.77-25.77-25.77h-59.71
			c-14.209,0-25.77,11.56-25.77,25.77c0.001,14.209,11.562,25.769,25.771,25.769h0.874c-1.017,2.768-1.573,5.755-1.573,8.872
			c0,14.209,11.561,25.769,25.769,25.769h99.971c14.208,0,25.769-11.56,25.769-25.769S463.029,74.347,448.821,74.347z
			 M448.821,108.989H348.85c-4.892,0-8.871-3.979-8.871-8.871s3.979-8.872,8.871-8.872c4.667,0,8.449-3.783,8.449-8.449
			c0-4.666-3.782-8.449-8.449-8.449h-25.071c-4.893,0-8.872-3.979-8.872-8.871s3.98-8.872,8.872-8.872h59.71
			c4.892,0,8.872,3.98,8.872,8.872s-3.98,8.871-8.872,8.871c-4.667,0-8.449,3.783-8.449,8.449c0,4.666,3.782,8.449,8.449,8.449
			h65.332c4.892,0,8.871,3.98,8.871,8.872S453.713,108.989,448.821,108.989z"/>
	</g>
</g>
<g>
	<g>
		<circle cx="448.215" cy="199.797" r="8.449"/>
	</g>
</g>
<g>
	<g>
		<circle cx="380.103" cy="266.422" r="8.449"/>
	</g>
</g>
<g>
	<g>
		<circle cx="259.56" cy="197.713" r="8.449"/>
	</g>
</g>
<g>
	<g>
		<circle cx="242.662" cy="312.622" r="8.449"/>
	</g>
</g>
<g>
	<g>
		<circle cx="151.41" cy="265.307" r="8.449"/>
	</g>
</g>
<g>
	<g>
		<circle cx="95.082" cy="338.533" r="8.449"/>
	</g>
</g>
<g>
	<g>
		<circle cx="41.009" cy="202.219" r="8.449"/>
	</g>
</g>
<g>
</g>
<g>
</g>
<g>
</g>
<g>
</g>
<g>
</g>
<g>
</g>
<g>
</g>
<g>
</g>
<g>
</g>
<g>
</g>
<g>
</g>
<g>
</g>
<g>
</g>
<g>
</g>
<g>
</g>
</svg>
