<?xml version="1.0" encoding="iso-8859-1"?>
<!-- Generator: Adobe Illustrator 19.0.0, SVG Export Plug-In . SVG Version: 6.00 Build 0)  -->
<svg version="1.1" id="Layer_1" xmlns="http://www.w3.org/2000/svg" xmlns:xlink="http://www.w3.org/1999/xlink" x="0px" y="0px"
	 viewBox="0 0 512 512" style="enable-background:new 0 0 512 512;" xml:space="preserve">
<g>
	<g>
		<path d="M503.551,441.497H396.667c4.323-55.185,50.609-98.766,106.884-98.766c4.667,0,8.449-3.783,8.449-8.449
			c0-4.666-3.782-8.449-8.449-8.449h-51.528c-56.839,0-103.081-46.242-103.081-103.081v-28.536c0-4.666-3.782-8.449-8.449-8.449
			s-8.449,3.783-8.449,8.449v28.536c0,41.931-34.112,76.043-76.043,76.043s-76.043-34.112-76.043-76.043v-28.536
			c0-4.666-3.782-8.449-8.449-8.449c-4.667,0-8.449,3.783-8.449,8.449v28.536c0,56.839-46.242,103.081-103.081,103.081H8.449
			c-4.667,0-8.449,3.783-8.449,8.449c0,4.666,3.782,8.449,8.449,8.449c56.275,0,102.56,43.581,106.883,98.766H8.449
			c-4.667,0-8.449,3.783-8.449,8.449c0,4.666,3.782,8.449,8.449,8.449h128.818c4.667,0,8.449-3.783,8.449-8.449
			c0-4.666-3.782-8.449-8.449-8.449h-4.997c-2.847-42.129-26.807-78.558-61.362-98.766h92.151v98.874
			c-4.056,0.62-7.165,4.113-7.165,8.341c0,4.666,3.782,8.449,8.449,8.449c13.422,0,20.445-3.453,26.641-6.5
			c5.417-2.663,9.694-4.765,19.187-4.765c9.485,0,13.761,2.102,19.174,4.764c6.197,3.047,13.22,6.501,26.644,6.501
			c13.42,0,20.443-3.452,26.64-6.498c5.42-2.663,9.699-4.768,19.199-4.768c9.492,0,13.771,2.103,19.187,4.765
			c6.196,3.047,13.219,6.5,26.641,6.5c4.667,0,8.449-3.783,8.449-8.449c0-4.228-3.109-7.721-7.164-8.341v-98.874h92.151
			c-34.556,20.208-58.516,56.636-61.363,98.766h-4.996c-4.667,0-8.449,3.783-8.449,8.449c0,4.666,3.782,8.449,8.449,8.449h128.818
			c4.667,0,8.449-3.783,8.449-8.449C512,445.28,508.217,441.497,503.551,441.497z M163.059,325.832h-41.753
			c17.136-10.234,31.518-24.615,41.753-41.753V325.832z M317.393,292.443c5.501-4.851,10.42-10.34,14.65-16.352v49.741h-14.65
			V292.443z M282.097,311.937c6.446-1.889,12.611-4.442,18.397-7.611v21.506h-18.397V311.937z M246.791,315.234
			c3.03,0.3,6.102,0.46,9.209,0.46c3.105,0,6.172-0.16,9.2-0.459v10.598h-18.408V315.234z M211.496,304.322
			c5.786,3.169,11.951,5.723,18.397,7.613v13.897h-18.397V304.322z M179.956,276.092c4.228,6.008,9.144,11.494,14.641,16.344v33.397
			h-14.641V276.092z M332.044,438.431h-0.001c-1.182-0.527-2.349-1.098-3.573-1.7c-6.196-3.047-13.219-6.5-26.641-6.5
			c-13.429,0-20.454,3.453-26.652,6.5c-5.418,2.662-9.695,4.765-19.187,4.765c-9.495,0-13.772-2.103-19.188-4.766
			c-6.194-3.046-13.215-6.499-26.631-6.499c-13.422,0-20.445,3.453-26.641,6.5c-1.225,0.602-2.391,1.173-3.572,1.7v-95.699h152.086
			V438.431z M348.941,325.834v-41.753c10.234,17.136,24.615,31.518,41.753,41.753H348.941z"/>
	</g>
</g>
<g>
	<g>
		<path d="M503.551,473.603H8.449c-4.667,0-8.449,3.783-8.449,8.449c0,4.666,3.782,8.449,8.449,8.449h495.102
			c4.667,0,8.449-3.783,8.449-8.449C512,477.386,508.217,473.603,503.551,473.603z"/>
	</g>
</g>
<g>
	<g>
		<path d="M413.706,21.499c-35.873,0-65.057,29.184-65.057,65.057c0,35.873,29.184,65.057,65.057,65.057
			c35.872,0,65.056-29.184,65.056-65.057C478.762,50.682,449.578,21.499,413.706,21.499z M413.706,134.715
			c-26.554,0-48.158-21.603-48.158-48.158c0-26.555,21.603-48.158,48.158-48.158c26.554,0,48.157,21.603,48.157,48.158
			C461.863,113.112,440.26,134.715,413.706,134.715z"/>
	</g>
</g>
<g>
	<g>
		<path d="M240.911,97.424h-41.135c1.017-2.768,1.573-5.754,1.573-8.872c0-14.209-11.561-25.769-25.77-25.769H79.784
			c-14.208,0-25.769,11.56-25.769,25.77c0,14.208,11.561,25.769,25.769,25.769h36.959c-1.017,2.767-1.573,5.756-1.573,8.871
			c0,14.209,11.561,25.77,25.769,25.77h99.971c14.208,0,25.769-11.56,25.769-25.77C266.68,108.983,255.12,97.424,240.911,97.424z
			 M240.91,132.064h-99.971c-4.892,0-8.871-3.98-8.871-8.872c0-4.892,3.979-8.871,8.871-8.871c4.667,0,8.449-3.783,8.449-8.449
			c0-4.666-3.782-8.449-8.449-8.449H79.784c-4.892,0-8.871-3.98-8.871-8.872c0-4.892,3.979-8.871,8.871-8.871h95.794
			c4.893,0,8.872,3.98,8.872,8.872s-3.979,8.871-8.872,8.871c-4.667,0-8.449,3.783-8.449,8.449c0,4.666,3.782,8.449,8.449,8.449
			h65.332c4.892,0,8.871,3.979,8.871,8.871C249.781,128.084,245.802,132.064,240.91,132.064z"/>
	</g>
</g>
<g>
	<g>
		<circle cx="478.497" cy="412.019" r="8.449"/>
	</g>
</g>
<g>
	<g>
		<circle cx="462.725" cy="386.108" r="8.449"/>
	</g>
</g>
<g>
	<g>
		<circle cx="441.32" cy="412.019" r="8.449"/>
	</g>
</g>
<g>
	<g>
		<circle cx="49.278" cy="386.108" r="8.449"/>
	</g>
</g>
<g>
	<g>
		<circle cx="70.683" cy="412.019" r="8.449"/>
	</g>
</g>
<g>
	<g>
		<circle cx="33.506" cy="412.019" r="8.449"/>
	</g>
</g>
<g>
</g>
<g>
</g>
<g>
</g>
<g>
</g>
<g>
</g>
<g>
</g>
<g>
</g>
<g>
</g>
<g>
</g>
<g>
</g>
<g>
</g>
<g>
</g>
<g>
</g>
<g>
</g>
<g>
</g>
</svg>
