<?xml version="1.0" encoding="iso-8859-1"?>
<!-- Generator: Adobe Illustrator 19.0.0, SVG Export Plug-In . SVG Version: 6.00 Build 0)  -->
<svg version="1.1" id="Layer_1" xmlns="http://www.w3.org/2000/svg" xmlns:xlink="http://www.w3.org/1999/xlink" x="0px" y="0px"
	 viewBox="0 0 512 512" style="enable-background:new 0 0 512 512;" xml:space="preserve">
<g>
	<g>
		<path d="M503.551,405.732h-50.666v-15.405c11.19-0.051,20.278-9.165,20.278-20.366v-0.471c0-4.666-3.782-8.449-8.449-8.449
			c-4.667,0-8.449,3.783-8.449,8.449v0.471c0,1.883-1.508,3.412-3.38,3.463v-15.2c0-4.666-3.782-8.449-8.449-8.449
			s-8.449,3.783-8.449,8.449v47.507h-14.621l-19.027-36.05c-1.385-2.624-4.042-4.328-7.004-4.493l-55.913-3.106l-12.218-22.858
			c-1.472-2.753-4.34-4.466-7.45-4.466c-0.068,0-0.135,0-0.204,0.002l-91.521,2.19c-3.087,0.074-5.89,1.827-7.305,4.572
			l-12.819,24.832l-41.495,7.986c-2.634,0.507-4.871,2.235-6.027,4.656l-12.767,26.736h-38.335v-76.606h4.134
			c12.629,0,22.903-10.274,22.903-22.903v-18.217c0-4.666-3.782-8.449-8.449-8.449s-8.449,3.783-8.449,8.449v18.217
			c0,3.311-2.694,6.005-6.005,6.005h-4.134V286.88c0-15.841-12.887-28.727-28.727-28.727S51.828,271.04,51.828,286.88v59.145h-4.135
			c-3.311,0-6.005-2.694-6.005-6.005v-18.217c0-4.666-3.782-8.449-8.449-8.449s-8.449,3.783-8.449,8.449v18.217
			c0,12.629,10.274,22.903,22.903,22.903h4.135v42.809H8.449c-4.667,0-8.449,3.783-8.449,8.449c0,4.666,3.782,8.448,8.449,8.448
			h495.102c4.667,0,8.449-3.783,8.449-8.449C512,409.515,508.218,405.732,503.551,405.732z M92.384,405.732H68.726V286.879
			c0-6.523,5.306-11.829,11.829-11.829c6.523,0,11.829,5.306,11.829,11.829V405.732z M166.342,405.731l7.452-15.604l41.335-7.956
			c2.544-0.49,4.721-2.119,5.91-4.421l12.403-24.026l81.312-1.947l28.839,53.953H166.342z M362.754,405.731l-14.009-26.207
			l40.881,2.271l12.633,23.936H362.754z"/>
	</g>
</g>
<g>
	<g>
		<path d="M503.551,437.837H8.449c-4.667,0-8.449,3.783-8.449,8.449c0,4.666,3.782,8.449,8.449,8.449h495.102
			c4.667,0,8.449-3.783,8.449-8.449C512,441.62,508.217,437.837,503.551,437.837z"/>
	</g>
</g>
<g>
	<g>
		<path d="M185.862,57.265c-35.873,0-65.057,29.185-65.057,65.057s29.185,65.056,65.057,65.056s65.056-29.184,65.056-65.056
			S221.734,57.265,185.862,57.265z M185.862,170.479c-26.554,0-48.158-21.603-48.158-48.157s21.604-48.158,48.158-48.158
			s48.157,21.604,48.157,48.158S212.416,170.479,185.862,170.479z"/>
	</g>
</g>
<g>
</g>
<g>
</g>
<g>
</g>
<g>
</g>
<g>
</g>
<g>
</g>
<g>
</g>
<g>
</g>
<g>
</g>
<g>
</g>
<g>
</g>
<g>
</g>
<g>
</g>
<g>
</g>
<g>
</g>
</svg>
