<?xml version="1.0" encoding="iso-8859-1"?>
<!-- Generator: Adobe Illustrator 19.0.0, SVG Export Plug-In . SVG Version: 6.00 Build 0)  -->
<svg version="1.1" id="Layer_1" xmlns="http://www.w3.org/2000/svg" xmlns:xlink="http://www.w3.org/1999/xlink" x="0px" y="0px"
	 viewBox="0 0 512 512" style="enable-background:new 0 0 512 512;" xml:space="preserve">
<g>
	<g>
		<path d="M503.551,447.679h-14.348c-42.307-55.132-95.624-93.998-133.258-117.04c-41.6-25.468-72.775-37.377-74.082-37.872
			c-3.513-1.329-7.475-0.182-9.736,2.814C205.226,384.265,53.248,441.867,37.438,447.679H8.449c-4.666,0-8.449,3.783-8.449,8.449
			s3.783,8.449,8.449,8.449h495.102c4.667,0,8.449-3.783,8.449-8.449S508.218,447.679,503.551,447.679z M82.298,447.68
			c15.131-6.65,33.475-15.244,53.291-25.687c65.247-34.384,114.064-71.41,145.264-110.141c3.392,2.24,7.805,5.348,12.266,9.05
			c11.027,9.151,17.377,17.799,17.882,24.351c0.33,4.297-15.301,9.194-25.646,12.434c-18.034,5.65-40.479,12.68-52.252,29.359
			c-2.395,3.393-4.532,6.65-6.599,9.799c-15.009,22.866-25.87,39.402-105.395,50.835H82.298z M193.356,447.679
			c25.502-10.601,35.828-24.124,47.275-41.562c1.991-3.032,4.048-6.167,6.278-9.327c8.476-12.008,27.084-17.837,43.499-22.979
			c19.077-5.976,38.803-12.156,37.441-29.855c-0.317-4.112-1.572-8.138-3.464-12.015c39.948,21.977,97.281,59.917,143.241,115.738
			H193.356z"/>
	</g>
</g>
<g>
	<g>
		<path d="M503.551,479.784H8.449c-4.666,0-8.449,3.783-8.449,8.449s3.783,8.449,8.449,8.449h495.102
			c4.667,0,8.449-3.783,8.449-8.449S508.217,479.784,503.551,479.784z"/>
	</g>
</g>
<g>
	<g>
		<path d="M214.53,40.631c-35.872,0-65.057,29.185-65.057,65.057c0,35.872,29.184,65.056,65.057,65.056
			c35.872,0,65.056-29.184,65.056-65.056C279.586,69.816,250.402,40.631,214.53,40.631z M214.53,153.846
			c-26.554,0-48.159-21.603-48.159-48.157S187.974,57.53,214.53,57.53c26.554,0,48.157,21.604,48.157,48.159
			S241.084,153.846,214.53,153.846z"/>
	</g>
</g>
<g>
	<g>
		<path d="M214.53,15.317c-49.83,0-90.37,40.54-90.37,90.37c-0.001,49.83,40.54,90.37,90.37,90.37c49.829,0,90.37-40.54,90.37-90.37
			S264.36,15.317,214.53,15.317z M214.53,179.158c-40.512,0-73.471-32.959-73.471-73.471s32.959-73.471,73.471-73.471
			c40.511,0,73.471,32.959,73.471,73.471C288.001,146.2,255.042,179.158,214.53,179.158z"/>
	</g>
</g>
<g>
</g>
<g>
</g>
<g>
</g>
<g>
</g>
<g>
</g>
<g>
</g>
<g>
</g>
<g>
</g>
<g>
</g>
<g>
</g>
<g>
</g>
<g>
</g>
<g>
</g>
<g>
</g>
<g>
</g>
</svg>
