<?xml version="1.0" encoding="iso-8859-1"?>
<!-- Generator: Adobe Illustrator 19.0.0, SVG Export Plug-In . SVG Version: 6.00 Build 0)  -->
<svg version="1.1" id="Layer_1" xmlns="http://www.w3.org/2000/svg" xmlns:xlink="http://www.w3.org/1999/xlink" x="0px" y="0px"
	 viewBox="0 0 512 512" style="enable-background:new 0 0 512 512;" xml:space="preserve">
<g>
	<g>
		<path d="M503.551,413.352h-82.237v-26.764h43.839c3.019,0,5.807-1.611,7.317-4.225s1.51-5.836,0-8.449l-23.172-40.136h7.598
			c3.019,0,5.807-1.611,7.317-4.225s1.51-5.836,0-8.449l-23.885-41.37h7.675c3.019,0,5.807-1.611,7.317-4.225s1.51-5.836,0-8.449
			L420.181,206.2c-1.51-2.614-4.298-4.225-7.317-4.225c-3.019,0-5.807,1.611-7.317,4.225l-18.824,32.605l-18.827-32.607
			c-1.51-2.614-4.299-4.225-7.317-4.225c-3.018,0-5.807,1.61-7.317,4.225l-18.829,32.611L315.607,206.2
			c-1.51-2.614-4.298-4.225-7.317-4.225c-3.019,0-5.807,1.611-7.317,4.225l-18.826,32.607l-18.828-32.61
			c-1.51-2.614-4.299-4.225-7.317-4.225s-5.807,1.61-7.317,4.225l-18.828,32.608L211.031,206.2c-1.51-2.614-4.298-4.225-7.317-4.225
			c-3.019,0-5.807,1.611-7.317,4.225l-18.827,32.61l-18.831-32.612c-1.51-2.614-4.298-4.225-7.317-4.225h-0.001
			c-3.019,0-5.809,1.612-7.317,4.227l-18.818,32.616l-18.832-32.617c-1.51-2.614-4.298-4.225-7.317-4.225s-5.807,1.611-7.317,4.225
			L56.682,267.06c-1.51,2.614-1.51,5.836,0,8.449c1.51,2.614,4.298,4.225,7.317,4.225h7.675l-23.885,41.37
			c-1.51,2.614-1.51,5.836,0,8.449c1.51,2.614,4.298,4.225,7.317,4.225h7.598l-23.172,40.136c-1.51,2.614-1.51,5.836,0,8.449
			c1.51,2.614,4.298,4.225,7.317,4.225h43.839v26.764H8.449C3.783,413.351,0,417.134,0,421.8c0,4.666,3.783,8.45,8.449,8.45h495.102
			c4.666,0,8.449-3.783,8.449-8.449C512,417.135,508.217,413.352,503.551,413.352z M450.519,369.69h-75.308l20.733-35.912h33.841
			L450.519,369.69z M412.864,227.323l20.504,35.513h-7.675h-25.656h-7.675L412.864,227.323z M404.915,279.734h15.9l21.445,37.145
			h-7.598h-43.597h-7.598L404.915,279.734z M360.578,227.321l16.388,28.383l-4.121,7.137h-24.54l-4.119-7.133L360.578,227.321z
			 M385.4,279.739L385.4,279.739l-21.443,37.141h-6.759l-21.443-37.141H385.4z M308.289,227.323l20.504,35.513h-7.675H295.46h-7.675
			L308.289,227.323z M300.335,279.739h15.906v0l21.443,37.141h-7.598h-43.597h-7.598L300.335,279.739z M345.942,369.69h-75.308
			l20.733-35.912h33.841L345.942,369.69z M256,227.321l16.389,28.385l-4.119,7.135h-24.54l-4.12-7.136L256,227.321z
			 M280.823,279.739L280.823,279.739L259.38,316.88h-6.759l-21.443-37.141H280.823z M203.712,227.323l20.503,35.513h-7.675h-25.656
			h-7.675L203.712,227.323z M195.759,279.739h15.906v0l21.443,37.141h-7.598h-43.597h-7.598L195.759,279.739z M241.366,369.69
			h-75.308l20.733-35.912h33.841L241.366,369.69z M151.423,227.326l16.388,28.383l-4.118,7.132h-24.54l-4.112-7.122L151.423,227.326
			z M176.246,279.739L176.246,279.739l-21.443,37.141h-6.759L126.6,279.739H176.246z M99.136,227.323l20.503,35.513H78.632
			L99.136,227.323z M91.185,279.735h15.9l21.446,37.145H69.739L91.185,279.735z M61.481,369.69l20.733-35.912h33.841l20.733,35.912
			H61.481z M142.975,413.352h-35.39v-26.764h35.39V413.352z M135.569,333.778h7.598h16.515h7.598l-15.855,27.462L135.569,333.778z
			 M195.263,413.352h-35.39v-26.764h35.39V413.352z M247.551,413.352h-35.39v-26.764h35.39V413.352z M240.145,333.778h7.598h16.516
			h7.598L256,361.241L240.145,333.778z M299.839,413.352h-35.39v-26.764h35.39V413.352z M352.128,413.352h-35.39v-26.764h35.39
			V413.352z M344.721,333.778h7.598h16.516h7.598l-15.855,27.462L344.721,333.778z M404.415,413.352h-35.39v-26.764h35.39V413.352z"
			/>
	</g>
</g>
<g>
	<g>
		<path d="M503.551,445.458H8.449c-4.666,0-8.449,3.783-8.449,8.449c0,4.666,3.783,8.449,8.449,8.449h495.102
			c4.666,0,8.449-3.783,8.449-8.449C512,449.241,508.217,445.458,503.551,445.458z"/>
	</g>
</g>
<g>
	<g>
		<path d="M169.163,145.616c-1.741-3.005-5.146-4.636-8.577-4.118c-1.605,0.243-3.246,0.367-4.876,0.367
			c-17.756,0-32.201-14.446-32.201-32.201c0-16.465,12.322-30.222,28.664-32.004c3.454-0.376,6.326-2.829,7.237-6.181
			c0.913-3.353-0.321-6.922-3.108-8.997c-11.286-8.4-24.705-12.839-38.804-12.839c-35.872,0-65.057,29.185-65.057,65.057
			c0,35.872,29.184,65.056,65.056,65.056c19.959,0,38.538-8.986,50.971-24.652C170.63,152.384,170.904,148.62,169.163,145.616z
			 M117.499,162.859c-26.554,0-48.159-21.603-48.159-48.157s21.604-48.16,48.159-48.16c4.127,0,8.173,0.514,12.075,1.519
			c-13.893,8.72-22.963,24.167-22.963,41.604c0,22.05,14.613,40.752,34.661,46.934C134.128,160.664,125.981,162.859,117.499,162.859
			z"/>
	</g>
</g>
<g>
</g>
<g>
</g>
<g>
</g>
<g>
</g>
<g>
</g>
<g>
</g>
<g>
</g>
<g>
</g>
<g>
</g>
<g>
</g>
<g>
</g>
<g>
</g>
<g>
</g>
<g>
</g>
<g>
</g>
</svg>
