<?xml version="1.0" encoding="iso-8859-1"?>
<!-- Generator: Adobe Illustrator 19.0.0, SVG Export Plug-In . SVG Version: 6.00 Build 0)  -->
<svg version="1.1" id="Layer_1" xmlns="http://www.w3.org/2000/svg" xmlns:xlink="http://www.w3.org/1999/xlink" x="0px" y="0px"
	 viewBox="0 0 512 512" style="enable-background:new 0 0 512 512;" xml:space="preserve">
<g>
	<g>
		<path d="M154.257,413.891h-33.181c2.818-4.513,4.453-9.837,4.453-15.539v-1.551c0-6.227-1.853-12.026-5.028-16.887
			c4.766-3.087,8.449-7.702,10.35-13.152h5.755c4.666,0,8.449-3.783,8.449-8.449c0-4.666-3.783-8.449-8.449-8.449h-5.755
			c-3.504-10.044-13.066-17.272-24.289-17.272c-14.183,0-25.722,11.538-25.722,25.722c0,2.611,0.394,5.131,1.121,7.507H58.499
			c-4.666,0-8.449,3.783-8.449,8.449v7.461c0,12.504,5.017,23.854,13.134,32.16H8.449c-4.666,0-8.449,3.783-8.449,8.449
			c0,4.666,3.783,8.449,8.449,8.449h145.808c4.666,0,8.449-3.783,8.449-8.449C162.706,417.674,158.923,413.891,154.257,413.891z
			 M108.631,398.353c0,6.909-5.622,12.531-12.531,12.531c-15.744,0-28.612-12.545-29.135-28.164h27.584
			c7.765,0,14.082,6.317,14.082,14.082V398.353z M106.563,367.137c-4.865,0-8.823-3.959-8.823-8.823s3.958-8.823,8.823-8.823
			c4.865,0,8.823,3.959,8.823,8.823S111.427,367.137,106.563,367.137z"/>
	</g>
</g>
<g>
	<g>
		<path d="M503.551,445.997H8.45c-4.666,0-8.449,3.783-8.449,8.449c0,4.666,3.783,8.449,8.449,8.449h495.1
			c4.666,0,8.449-3.783,8.449-8.449C512,449.78,508.217,445.997,503.551,445.997z"/>
	</g>
</g>
<g>
	<g>
		<path d="M503.547,408.256c-14.206,0-21.667,3.395-28.25,6.391c-3.952,1.798-7.533,3.428-12.814,4.271v-44.151
			c2.017-11.801,6.941-28.238,18.961-40.86c3.217-3.38,3.088-8.728-0.292-11.946s-8.729-3.088-11.946,0.292
			c-2.489,2.612-4.706,5.348-6.724,8.145v-24.748c8.847-3.409,15.152-11.978,15.152-22.011v-53.061
			c0-10.033-6.305-18.603-15.152-22.011v-13.42c0-4.666-3.783-8.449-8.449-8.449c-4.666,0-8.449,3.783-8.449,8.449v13.42
			c-8.847,3.409-15.152,11.978-15.152,22.011v53.061c0,10.033,6.304,18.602,15.152,22.011V418.92
			c-5.28-0.843-8.862-2.473-12.814-4.271c-5.952-2.708-12.64-5.733-24.363-6.292v-68.912c8.847-3.409,15.152-11.978,15.152-22.011
			v-53.061c0-10.033-6.305-18.603-15.152-22.011v-13.42c0-4.666-3.783-8.449-8.449-8.449c-4.666,0-8.449,3.783-8.449,8.449v13.42
			c-8.847,3.409-15.152,11.978-15.152,22.011v53.061c0,10.033,6.304,18.602,15.152,22.011v69.963
			c-6.462,1.25-11.04,3.326-15.25,5.242c-5.745,2.615-10.708,4.874-21.25,4.874c-6.339,0-10.656-0.819-14.343-2.037
			c0.943-3.483,1.444-7.094,1.444-10.726c0-22.574-18.36-40.939-40.928-40.939c-22.574,0-40.939,18.365-40.939,40.939
			c0,4.272,0.669,8.458,1.944,12.451c-1.846,0.198-3.883,0.313-6.203,0.313c-10.541,0-15.505-2.258-21.25-4.873
			c-2.665-1.213-5.485-2.489-8.829-3.58V358.31c0.522-7.852,3.474-32.868,20.088-50.311c3.217-3.38,3.088-8.728-0.292-11.946
			c-3.379-3.217-8.726-3.087-11.946,0.292c-2.957,3.105-5.555,6.375-7.851,9.724v-30.837c8.847-3.409,15.152-11.978,15.152-22.011
			V200.16c0-10.033-6.305-18.603-15.152-22.011v-13.42c0-4.666-3.783-8.449-8.449-8.449c-4.666,0-8.446,3.783-8.446,8.449v13.42
			c-8.847,3.409-15.152,11.978-15.152,22.011v53.061c0,10.033,6.304,18.602,15.152,22.011v52.56
			c-2.349-3.462-5.024-6.839-8.076-10.044c-3.219-3.38-8.566-3.508-11.946-0.292c-3.38,3.219-3.509,8.566-0.292,11.946
			c19.796,20.785,20.198,52.336,20.2,52.771c0.001,0.444,0.113,26.124,0.113,26.124c-0.821-0.025-1.664-0.038-2.535-0.038
			c-14.215,0-21.672,3.397-28.252,6.392c-4.247,1.934-6.122,6.945-4.187,11.191s6.945,6.122,11.191,4.187
			c5.742-2.615,10.701-4.874,21.248-4.874c10.55,0,15.514,2.259,21.263,4.875c6.583,2.996,14.044,6.391,28.25,6.391
			s21.666-3.396,28.25-6.391c5.749-2.616,10.712-4.875,21.263-4.875c10.541,0,15.505,2.258,21.25,4.874
			c6.585,2.997,14.047,6.392,28.262,6.392c14.208,0,21.668-3.396,28.251-6.392c5.745-2.615,10.707-4.874,21.25-4.874
			c10.549,0,15.514,2.259,21.263,4.875c6.585,2.996,14.048,6.391,28.261,6.391c14.215,0,21.677-3.397,28.262-6.392
			c5.747-2.615,10.709-4.874,21.25-4.874c4.666,0,8.449-3.783,8.449-8.449C511.997,412.039,508.214,408.256,503.547,408.256z
			 M224.16,253.221c0,3.696-3.007,6.703-6.703,6.703c-3.696,0-6.703-3.007-6.703-6.703V200.16c0-3.696,3.007-6.703,6.703-6.703
			c3.696,0,6.703,3.007,6.703,6.703V253.221z M324.827,411.038c-4.896-1.59-10.929-2.78-19.328-2.78
			c-13.444,0-20.848,3.038-27.182,5.902c-0.768-2.37-1.174-4.859-1.174-7.4c0-13.255,10.785-24.04,24.041-24.04
			c13.25,0,24.03,10.785,24.03,24.041C325.213,408.2,325.08,409.632,324.827,411.038z M406.664,317.435
			c0,3.696-3.007,6.703-6.703,6.703c-3.696,0-6.703-3.007-6.703-6.703v-53.061c0-3.696,3.007-6.703,6.703-6.703
			c3.696,0,6.703,3.007,6.703,6.703V317.435z M460.739,283.638c0,3.696-3.007,6.703-6.703,6.703s-6.703-3.007-6.703-6.703v-53.061
			c0-3.696,3.007-6.703,6.703-6.703s6.703,3.007,6.703,6.703V283.638z"/>
	</g>
</g>
<g>
	<g>
		<path d="M220.46,74.874c0-14.209-11.561-25.77-25.77-25.77h-59.71c-14.209,0-25.77,11.56-25.77,25.77
			c0,3.115,0.557,6.104,1.573,8.871H69.646c-14.209,0-25.77,11.56-25.77,25.77c0,14.209,11.561,25.769,25.77,25.769h99.971
			c14.209,0,25.77-11.56,25.77-25.769c0-3.116-0.555-6.104-1.574-8.872h0.875C208.899,100.643,220.46,89.084,220.46,74.874z
			 M169.618,83.746c-4.666,0-8.449,3.783-8.449,8.449c0,4.666,3.783,8.449,8.449,8.449c4.892,0,8.872,3.98,8.872,8.872
			s-3.98,8.871-8.872,8.871H69.646c-4.892,0-8.872-3.979-8.872-8.871s3.98-8.872,8.872-8.872h65.332
			c4.666,0,8.449-3.783,8.449-8.449c0-4.666-3.783-8.449-8.449-8.449c-4.892,0-8.872-3.979-8.872-8.871s3.98-8.872,8.872-8.872
			h59.71c4.892,0,8.872,3.98,8.872,8.872s-3.98,8.871-8.872,8.871H169.618z"/>
	</g>
</g>
<g>
	<g>
		<path d="M403.522,106.276H338.19c-14.209,0-25.769,11.56-25.769,25.77c0,14.209,11.56,25.769,25.769,25.769h65.332
			c14.209,0,25.769-11.56,25.769-25.769S417.731,106.276,403.522,106.276z M403.522,140.918H338.19
			c-4.892,0-8.871-3.979-8.871-8.871c0-4.892,3.979-8.872,8.871-8.872h65.332c4.892,0,8.871,3.98,8.871,8.872
			C412.393,136.939,408.414,140.918,403.522,140.918z"/>
	</g>
</g>
<g>
</g>
<g>
</g>
<g>
</g>
<g>
</g>
<g>
</g>
<g>
</g>
<g>
</g>
<g>
</g>
<g>
</g>
<g>
</g>
<g>
</g>
<g>
</g>
<g>
</g>
<g>
</g>
<g>
</g>
</svg>
