<?xml version="1.0" encoding="iso-8859-1"?>
<!-- Generator: Adobe Illustrator 19.0.0, SVG Export Plug-In . SVG Version: 6.00 Build 0)  -->
<svg version="1.1" id="Capa_1" xmlns="http://www.w3.org/2000/svg" xmlns:xlink="http://www.w3.org/1999/xlink" x="0px" y="0px"
	 viewBox="0 0 512 512" style="enable-background:new 0 0 512 512;" xml:space="preserve">
<g>
	<g>
		<path d="M504.5,432.878c-64.503,0-114.376-8.695-172.124-18.762c-45.3-7.897-94.077-16.399-157.061-22.206l-0.78-24.193H504.5
			c4.142,0,7.5-3.358,7.5-7.5c0-4.142-3.358-7.5-7.5-7.5h-12.926L350.453,211.596c-5.958-5.958-13.881-9.24-22.308-9.24
			s-16.349,3.281-22.308,9.24l-41.821,41.821l-18.259-18.259c-12.301-12.301-32.315-12.301-44.616,0l-29.918,29.918l-3.492-108.262
			l117.504,47.872c0.916,0.373,1.875,0.554,2.828,0.554c1.923,0,3.815-0.74,5.244-2.136c2.136-2.087,2.83-5.243,1.767-8.034
			c-0.684-1.795-14.447-37.115-44.965-58.999l35.559-4.194c3.004-0.354,5.501-2.478,6.333-5.386c0.832-2.908-0.165-6.031-2.527-7.92
			c-1.371-1.097-25.184-19.868-55.327-26.841l11.203-7.174c2.354-1.508,3.675-4.201,3.425-6.986s-2.029-5.2-4.615-6.265
			c-1.716-0.707-42.397-17.089-73.711,2.115c-9.617,5.898-17.185,14.395-22.666,25.413c-5.481-11.018-13.048-19.515-22.666-25.413
			c-31.314-19.203-71.995-2.822-73.711-2.115c-2.586,1.065-4.365,3.479-4.615,6.265c-0.25,2.785,1.071,5.478,3.425,6.986
			l11.201,7.174c-30.142,6.973-53.954,25.745-55.325,26.842c-2.362,1.889-3.358,5.012-2.527,7.92
			c0.832,2.908,3.329,5.032,6.333,5.386l35.56,4.194C14.939,157.955,1.175,193.275,0.491,195.07
			c-1.063,2.791-0.369,5.946,1.767,8.034c1.429,1.396,3.32,2.136,5.244,2.136c0.952,0,1.913-0.181,2.828-0.554l117.504-47.872
			l-0.348,10.779c-0.134,4.14,3.114,7.604,7.254,7.738c0.083,0.003,0.165,0.004,0.247,0.004c4.03,0,7.361-3.201,7.492-7.258
			l0.564-17.458l4.741-1.931l4.741,1.932l7.741,239.98c-8.066-0.663-16.359-1.281-24.905-1.848l6.084-188.613
			c0.134-4.14-3.114-7.604-7.254-7.738c-4.122-0.129-7.604,3.115-7.738,7.254l-2.9,89.897c-5.602-4.555-12.539-7.034-19.858-7.034
			c-8.427,0-16.349,3.282-22.308,9.24l-60.96,60.96H7.5c-4.142,0-7.5,3.358-7.5,7.5c0,4.142,3.358,7.5,7.5,7.5h113.53l-0.649,20.109
			C86.88,385.91,49.625,384.781,7.5,384.781c-4.142,0-7.5,3.358-7.5,7.5c0,4.142,3.358,7.5,7.5,7.5
			c155.312,0,244.027,15.466,322.3,29.112c58.434,10.187,108.899,18.985,174.7,18.985c4.142,0,7.5-3.358,7.5-7.5
			C512,436.236,508.642,432.878,504.5,432.878z M23.228,183.234c8.814-14.709,24.468-34.924,47.639-44.165l47.124,5.558
			L23.228,183.234z M32.2,119.404c15.656-8.752,40.074-18.848,63.498-13.987c14.639,3.039,27.222,11.731,37.542,25.904L32.2,119.404
			z M98.746,90.73c-4.51-0.936-9.019-1.421-13.486-1.543l-12.938-8.285c12.539-2.473,30.542-3.563,45.011,5.342
			c9.026,5.556,15.737,14.487,20.107,26.639C126.44,101.218,113.499,93.792,98.746,90.73z M121.514,352.717h-16.719l17.276-17.276
			L121.514,352.717z M122.779,313.521l-39.196,39.196H41.639l50.353-50.353c3.125-3.126,7.281-4.847,11.701-4.847
			c4.42,0,8.576,1.721,11.702,4.847l7.043,7.043c0.148,0.148,0.303,0.282,0.459,0.415L122.779,313.521z M272.291,183.215
			l-94.718-38.589l47.125-5.558C247.776,148.277,263.447,168.496,272.291,183.215z M158.125,112.881
			c4.37-12.152,11.08-21.083,20.107-26.638c14.47-8.906,32.476-7.815,45.011-5.342l-12.939,8.286
			c-4.467,0.123-8.976,0.606-13.486,1.543C182.066,93.792,169.126,101.217,158.125,112.881z M199.811,105.428
			c4.217-0.88,8.463-1.271,12.694-1.271c19.203,0,37.954,8.079,50.814,15.252L162.325,131.32
			C172.632,117.167,185.196,108.477,199.811,105.428z M327.779,223.479c0.17-1.192,0.484-2.235,0.955-3.148
			c0.942-1.829,3.164-2.668,5.098-1.965c2.235,0.812,4.284,2.106,6.016,3.837l130.515,130.515h-98.956
			c2.233-3.965,4.423-8.736,5.989-14.157c4.358-15.093,4.674-38.103-18.571-62.01C327.582,244.419,327.163,227.805,327.779,223.479z
			 M171.886,285.626l39.861-39.861c6.452-6.452,16.951-6.452,23.403,0l18.259,18.259l-2.713,2.713
			c-2.929,2.929-2.929,7.677,0,10.606c2.929,2.929,7.678,2.929,10.606,0l51.335-51.335c0.171,16.268,12.308,37.218,35.429,60.998
			c14.475,14.887,19.542,30.659,15.06,46.877c-2.43,8.795-7.11,15.541-9.732,18.834H185.929l51.326-51.326
			c2.929-2.929,2.929-7.677,0-10.606c-2.929-2.929-7.678-2.929-10.606,0l-52.89,52.89L171.886,285.626z"/>
	</g>
</g>
<g>
</g>
<g>
</g>
<g>
</g>
<g>
</g>
<g>
</g>
<g>
</g>
<g>
</g>
<g>
</g>
<g>
</g>
<g>
</g>
<g>
</g>
<g>
</g>
<g>
</g>
<g>
</g>
<g>
</g>
</svg>
