<svg height="512pt" viewBox="0 -17 512 512" width="512pt" xmlns="http://www.w3.org/2000/svg"><path d="m504.5 463.867188h-9.066406v-323.835938c0-4.140625-3.355469-7.5-7.5-7.5h-33.132813c-4.140625 0-7.5 3.359375-7.5 7.5v25.632812h-143.539062l-40.261719-77.171874v-17.8125l61.402344-23.023438c2.925781-1.097656 4.867187-3.898438 4.867187-7.023438s-1.941406-5.925781-4.867187-7.023437l-61.402344-23.023437v-3.085938c0-4.140625-3.359375-7.5-7.5-7.5-4.144531 0-7.5 3.359375-7.5 7.5v80.996094l-40.265625 77.167968h-143.535156v-25.632812c0-4.140625-3.359375-7.5-7.5-7.5h-33.136719c-4.140625 0-7.5 3.359375-7.5 7.5v323.835938h-9.0625c-4.140625 0-7.5 3.359374-7.5 7.5 0 4.144531 3.359375 7.5 7.5 7.5h497c4.140625 0 7.5-3.355469 7.5-7.5 0-4.140626-3.359375-7.5-7.5-7.5zm-241-437.261719 37.40625 14.027343-37.40625 14.027344zm139.0625 154.058593-14.03125 37.40625-14.023438-37.40625zm-265.070312 0-14.027344 37.40625-14.027344-37.40625zm-80.292969 77.484376c-4.144531 0-7.5 3.359374-7.5 7.5v198.21875h-18.136719v-316.335938h18.132812v87.117188c0 4.140624 3.359376 7.5 7.5 7.5 4.144532 0 7.5-3.359376 7.5-7.5v-53.984376h28.722657l23.023437 61.402344c1.097656 2.925782 3.898438 4.867188 7.023438 4.867188s5.925781-1.941406 7.023437-4.867188l23.023438-61.402344h46.894531l-135.707031 260.113282v-175.128906c0-4.140626-3.359375-7.5-7.5-7.5zm116.09375 205.71875 82.707031-158.519532 82.707031 158.519532zm-13.527344-6.5-26.386719-35.007813 93.363282-93.363281zm125.492187-128.367188 93.359376 93.359375-26.386719 35.007813zm80.859376 134.867188 28.40625-37.6875c2.25-2.984376 1.957031-7.171876-.6875-9.816407l-132.53125-132.53125c-.1875-.1875-.382813-.363281-.585938-.523437-.011719-.011719-.027344-.019532-.039062-.03125-.230469-.183594-.46875-.351563-.714844-.503906-.0625-.039063-.128906-.074219-.191406-.113282-.097657-.054687-.195313-.121094-.296876-.171875-.125-.066406-.253906-.121093-.378906-.175781-.054687-.027344-.105468-.050781-.15625-.074219-.289062-.121093-.578125-.226562-.875-.3125-.042968-.011719-.082031-.019531-.125-.03125-.257812-.066406-.515625-.121093-.78125-.160156-.078125-.011719-.15625-.023437-.234375-.035156-.617187-.078125-1.238281-.078125-1.851562 0-.078125.011719-.15625.023437-.234375.035156-.265625.039063-.527344.09375-.785156.164063-.039063.007812-.078126.015624-.121094.027343-.296875.085938-.589844.191407-.875.3125-.050782.023438-.097656.046875-.148438.070313-.234375.105468-.464844.222656-.691406.355468-.0625.035157-.121094.070313-.179688.105469-.253906.160157-.503906.328125-.738281.519531-.007812.007813-.011719.011719-.019531.015626-.203125.164062-.398438.339843-.585938.527343l-132.535156 132.53125c-2.640625 2.644531-2.933594 6.832031-.683594 9.816407l28.40625 37.6875h-76.3125l149.804688-287.125c0-.003907.003906-.007813.007812-.011719l29.113282-55.808594v35.675781c0 4.140625 3.359375 7.5 7.5 7.5 4.144531 0 7.5-3.359375 7.5-7.5v-35.679687l29.125 55.820312 149.808594 287.128907zm81.183593-23.089844-135.710937-260.113282h46.894531l23.027344 61.402344c1.097656 2.925782 3.894531 4.867188 7.019531 4.867188 3.128906 0 5.925781-1.941406 7.023438-4.867188l23.023437-61.402344h28.722656zm33.132813 23.089844h-18.132813v-316.335938h18.132813zm0 0"/></svg>