<?xml version="1.0" encoding="iso-8859-1"?>
<!-- Generator: Adobe Illustrator 19.0.0, SVG Export Plug-In . SVG Version: 6.00 Build 0)  -->
<svg version="1.1" id="Layer_1" xmlns="http://www.w3.org/2000/svg" xmlns:xlink="http://www.w3.org/1999/xlink" x="0px" y="0px"
	 viewBox="0 0 512.002 512.002" style="enable-background:new 0 0 512.002 512.002;" xml:space="preserve">
<g>
	<g>
		<path d="M503.553,414.42h-19.949l-21.934-21.934c-1.584-1.585-3.733-2.475-5.974-2.475h-14.689
			c17.027-14.159,41.85-35.129,55.903-48.521c2.316-2.207,3.187-5.531,2.251-8.59c-0.936-3.057-3.519-5.326-6.673-5.858
			c-42.111-7.107-77.818,6.594-89.341,11.774c-3.558-1.577-9.334-3.994-16.139-6.297c7.782-13.715,13.607-23.791,16.657-28.807
			c1.416-2.328,1.622-5.195,0.555-7.7c-1.067-2.507-3.277-4.344-5.936-4.937c-34.216-7.625-72.277-2.584-113.124,14.984
			c-0.789,0.339-1.505,0.799-2.144,1.344c-0.044-0.119-0.094-0.234-0.136-0.355c-6.086-11.112-17.369-28.974-34.691-46.23
			c-27.728-27.623-60.623-44.021-97.769-48.738c-2.857-0.363-5.711,0.758-7.557,2.975c-1.846,2.216-2.433,5.222-1.558,7.97
			c1.456,4.574,4.88,21.193,9.038,42.68c-12.023-4.177-30.272-8.935-51.885-9.371c-2.398-0.03-4.786,0.961-6.427,2.769
			c-1.641,1.808-2.42,4.239-2.135,6.665c0.62,5.27,1.687,13.45,3.18,24.381c-15.096-3.377-41.276-7.391-65.683-2.083
			c-2.522,0.549-4.656,2.219-5.792,4.538c-1.137,2.318-1.15,5.028-0.038,7.358l30.72,64.365v50.097H8.452
			c-4.666,0-8.449,3.783-8.449,8.449c0,4.666,3.783,8.445,8.449,8.445h495.102c4.666,0,8.449-3.783,8.449-8.449
			C512.002,418.203,508.219,414.42,503.553,414.42z M471.287,341.981c-16.318,14.431-37.117,31.771-49.204,41.755l-8.759-30.889
			C423.48,348.697,445.173,341.43,471.287,341.981z M396.143,354.202l7.599,26.797H381.95c-2.636-7.228-8.471-23.1-13.608-36.266
			C379.481,347.201,390.707,351.806,396.143,354.202z M382.965,305.548c-3.916,6.762-8.536,14.877-12.756,22.333
			c-5.102-1.043-10.245-1.709-15.069-1.709c-2.84,0-5.491,1.427-7.053,3.798c-1.564,2.371-1.831,5.369-0.712,7.979
			c4.486,10.467,12.12,30.936,16.577,43.048h-22.414l-40.453-63.189C330.436,306.515,357.885,302.407,382.965,305.548z
			 M287.773,328.358l33.7,52.64h-46.336C275.736,373.347,278.233,350.801,287.773,328.358z M236.26,272.786
			c15.499,15.441,25.694,31.352,31.333,41.528c-36.115,18.517-65.176,43.127-80.448,57.382
			c-5.955-33.139-19.701-108.885-26.598-140.788C188.928,236.907,214.35,250.959,236.26,272.786z M267.801,333.359
			c-7.358,21.73-9.191,41.258-9.612,47.639h-56.113C216.122,368.268,239.541,348.998,267.801,333.359z M154.087,285.296
			c0.519,2.744,1.042,5.525,1.569,8.332c-6.827,8.746-24.906,33.063-36.602,59.432c-1.719-11.89-10.233-72.45-11.126-79.298
			C129.778,275.705,146.844,282.153,154.087,285.296z M103.716,365.048l-31.107-8.234c4.449-8.448,12.776-21.426,25.524-30.568
			C100.239,341.033,102.279,355.14,103.716,365.048z M41.702,302.922c21.622-2.09,43.621,2.592,53.502,5.137
			c-16.491,9.371-27.613,23.836-34.319,35.057L41.702,302.922z M154.424,414.42H69.18v-41.033l85.244,22.565V414.42z
			 M129.764,371.943c6.907-20.417,20.374-41.707,30.128-55.576c4.416,23.891,8.701,47.566,11.757,64.631h-7.675L129.764,371.943z
			 M171.322,414.42v-16.523h233.095l7.326,6.77c1.561,1.442,3.608,2.243,5.734,2.243h34.719l7.511,7.511H171.322z"/>
	</g>
</g>
<g>
	<g>
		<path d="M503.553,440.892c-14.212,0-21.674,3.395-28.258,6.391c-5.748,2.616-10.711,4.875-21.258,4.875
			c-10.547,0-15.512-2.259-21.259-4.875c-6.584-2.996-14.046-6.391-28.258-6.391c-14.209,0-21.672,3.395-28.255,6.392
			c-5.747,2.615-10.71,4.874-21.255,4.874c-10.546,0-15.509-2.259-21.256-4.875c-6.584-2.996-14.045-6.391-28.255-6.391
			c-14.209,0-21.671,3.395-28.254,6.392c-5.747,2.615-10.71,4.874-21.255,4.874s-15.508-2.259-21.255-4.874
			c-6.583-2.997-14.045-6.392-28.254-6.392c-14.208,0-21.67,3.395-28.252,6.392c-5.745,2.615-10.708,4.874-21.25,4.874
			c-10.545,0-15.508-2.259-21.255-4.874c-6.583-2.997-14.045-6.392-28.254-6.392s-21.671,3.395-28.254,6.392
			c-5.747,2.615-10.71,4.874-21.255,4.874s-15.508-2.259-21.255-4.874c-6.583-2.997-14.045-6.392-28.254-6.392
			c-4.666,0-8.449,3.783-8.449,8.449c0,4.666,3.783,8.449,8.449,8.449c10.545,0,15.508,2.259,21.255,4.874
			c6.583,2.997,14.045,6.392,28.254,6.392c14.209,0,21.671-3.396,28.254-6.392c5.747-2.615,10.71-4.874,21.255-4.874
			s15.508,2.259,21.255,4.874c6.583,2.997,14.045,6.392,28.254,6.392c14.208,0,21.668-3.396,28.251-6.392
			c5.745-2.615,10.708-4.874,21.252-4.874c10.545,0,15.508,2.259,21.255,4.874c6.583,2.997,14.045,6.392,28.254,6.392
			s21.672-3.396,28.254-6.392c5.747-2.615,10.709-4.874,21.255-4.874c10.546,0,15.509,2.259,21.256,4.875
			c6.584,2.996,14.045,6.391,28.255,6.391c14.209,0,21.671-3.396,28.254-6.391c5.748-2.616,10.71-4.875,21.256-4.875
			c10.547,0,15.512,2.259,21.258,4.875c6.585,2.996,14.047,6.391,28.258,6.391c14.211,0,21.673-3.396,28.258-6.391
			c5.748-2.616,10.711-4.875,21.259-4.875c4.666,0,8.449-3.783,8.449-8.449C512.002,444.675,508.219,440.892,503.553,440.892z"/>
	</g>
</g>
<g>
	<g>
		<path d="M389.356,42.946c-35.872,0-65.056,29.184-65.056,65.057c0,35.873,29.184,65.056,65.056,65.056
			c35.872,0,65.057-29.184,65.057-65.057S425.229,42.946,389.356,42.946z M389.356,156.161c-26.554,0-48.157-21.603-48.157-48.158
			c0-26.555,21.603-48.159,48.157-48.159c26.554,0,48.159,21.603,48.159,48.159C437.515,134.558,415.912,156.161,389.356,156.161z"
			/>
	</g>
</g>
<g>
</g>
<g>
</g>
<g>
</g>
<g>
</g>
<g>
</g>
<g>
</g>
<g>
</g>
<g>
</g>
<g>
</g>
<g>
</g>
<g>
</g>
<g>
</g>
<g>
</g>
<g>
</g>
<g>
</g>
</svg>
