<?xml version="1.0" encoding="iso-8859-1"?>
<!-- Generator: Adobe Illustrator 19.0.0, SVG Export Plug-In . SVG Version: 6.00 Build 0)  -->
<svg version="1.1" id="Layer_1" xmlns="http://www.w3.org/2000/svg" xmlns:xlink="http://www.w3.org/1999/xlink" x="0px" y="0px"
	 viewBox="0 0 512.001 512.001" style="enable-background:new 0 0 512.001 512.001;" xml:space="preserve">
<g>
	<g>
		<path d="M503.551,433.036h-30.533l-5.723-31.37c-0.731-4.015-4.23-6.933-8.312-6.933h-25.512V246.026h6.363
			c4.667,0,8.449-3.783,8.449-8.449V189.35c0-4.666-3.782-8.449-8.449-8.449h-12.201v-5.32c0-22.874-16.529-41.948-38.268-45.938
			v-13.735c0-4.666-3.782-8.449-8.449-8.449s-8.449,3.783-8.449,8.449v13.735c-21.739,3.989-38.269,23.063-38.269,45.938v5.32
			h-12.202c-4.667,0-8.449,3.783-8.449,8.449v48.227c0,4.666,3.782,8.449,8.449,8.449h6.363v148.707h-25.512
			c-4.082,0-7.581,2.918-8.312,6.933l-5.723,31.37h-44.459c-4.667,0-8.449,3.783-8.449,8.449c0,4.666,3.782,8.449,8.449,8.449
			h259.199c4.667,0,8.449-3.783,8.449-8.449C512,436.819,508.218,433.036,503.551,433.036z M411.647,197.799h19.739v31.329h-19.739
			V197.799z M345.257,385.015v-22.514l71.317-21.742v22.514L345.257,385.015z M416.573,380.941v13.794h-45.245L416.573,380.941z
			 M345.257,344.834V322.32l71.317-21.742v22.514L345.257,344.834z M345.257,304.654V282.14l71.317-21.742v22.514L345.257,304.654z
			 M405.763,246.026l-60.506,18.445v-18.445H405.763z M367.081,229.129v-31.329h27.668v31.329H367.081z M351.095,175.581
			c0-0.555,0.018-1.106,0.048-1.655h12.873c4.667,0,8.449-3.783,8.449-8.449c0-4.666-3.782-8.449-8.449-8.449h-6.42
			c5.468-6.859,13.886-11.266,23.319-11.266c9.433,0,17.85,4.407,23.318,11.266h-6.419c-4.667,0-8.449,3.783-8.449,8.449
			c0,4.666,3.782,8.449,8.449,8.449h12.872c0.03,0.549,0.048,1.099,0.048,1.655v5.32h-7.537h-44.567h-7.536V175.581z
			 M330.444,197.801h19.739v31.329h-19.739V197.801z M305.99,433.036l3.905-21.405h26.914h88.216h26.914l3.905,21.405H305.99z"/>
	</g>
</g>
<g>
	<g>
		<path d="M222.258,437.754c-2.059-4.186-7.124-5.911-11.312-3.851c-5.41,2.662-9.682,4.764-19.183,4.764
			c-9.494,0-13.771-2.103-19.188-4.766c-6.196-3.046-13.219-6.499-26.641-6.499c-13.415,0-20.437,3.453-26.631,6.499
			c-5.417,2.663-9.693,4.766-19.187,4.766c-9.491,0-13.77-2.103-19.187-4.765c-6.198-3.047-13.224-6.5-26.652-6.5
			c-13.422,0-20.446,3.453-26.642,6.5c-5.417,2.663-9.694,4.765-19.187,4.765c-4.667,0-8.449,3.783-8.449,8.449
			c0,4.666,3.782,8.45,8.449,8.45c13.422,0,20.445-3.453,26.641-6.499c5.418-2.663,9.694-4.766,19.188-4.766
			c9.5,0,13.779,2.103,19.199,4.768c6.197,3.046,13.22,6.498,26.64,6.498c13.423,0,20.446-3.454,26.643-6.501
			c5.413-2.662,9.688-4.764,19.174-4.764c9.492,0,13.771,2.103,19.187,4.765c6.196,3.046,13.22,6.5,26.642,6.5
			c13.434,0,20.453-3.454,26.644-6.501C222.595,447.006,224.318,441.942,222.258,437.754z"/>
	</g>
</g>
<g>
	<g>
		<path d="M503.551,465.142H8.451c-4.667,0-8.449,3.783-8.449,8.449c0,4.666,3.782,8.449,8.449,8.449h495.1
			c4.667,0,8.449-3.783,8.449-8.449C512.001,468.925,508.218,465.142,503.551,465.142z"/>
	</g>
</g>
<g>
	<g>
		<path d="M127.252,254.111c-6.018,0-11.529,2.206-15.771,5.853c-4.24-3.647-9.752-5.853-15.77-5.853
			c-4.667,0-8.449,3.783-8.449,8.449c0,4.666,3.782,8.449,8.449,8.449c4.036,0,7.32,3.284,7.32,7.322
			c0,4.666,3.782,8.449,8.449,8.449s8.449-3.783,8.449-8.449c0-4.036,3.284-7.322,7.322-7.322c4.667,0,8.449-3.783,8.449-8.449
			C135.701,257.894,131.92,254.111,127.252,254.111z"/>
	</g>
</g>
<g>
	<g>
		<path d="M99.024,159.655c-12.303,0-23.289,5.747-30.416,14.696c-7.127-8.949-18.113-14.696-30.416-14.696
			c-4.667,0-8.449,3.783-8.449,8.449c0,4.666,3.783,8.449,8.449,8.449c12.113,0,21.967,9.854,21.967,21.967
			c0,4.666,3.782,8.449,8.449,8.449s8.449-3.783,8.449-8.449c0-12.113,9.854-21.967,21.967-21.967c4.667,0,8.449-3.783,8.449-8.449
			C107.473,163.438,103.691,159.655,99.024,159.655z"/>
	</g>
</g>
<g>
	<g>
		<path d="M204.826,29.96c-35.872,0-65.056,29.185-65.056,65.057s29.185,65.056,65.056,65.056c35.872,0,65.056-29.184,65.056-65.056
			S240.698,29.96,204.826,29.96z M204.826,143.175c-26.554,0-48.157-21.603-48.157-48.157s21.603-48.158,48.157-48.158
			s48.157,21.604,48.157,48.158S231.381,143.175,204.826,143.175z"/>
	</g>
</g>
<g>
</g>
<g>
</g>
<g>
</g>
<g>
</g>
<g>
</g>
<g>
</g>
<g>
</g>
<g>
</g>
<g>
</g>
<g>
</g>
<g>
</g>
<g>
</g>
<g>
</g>
<g>
</g>
<g>
</g>
</svg>
